<svg xmlns="http://www.w3.org/2000/svg" width="24.359" height="26.749" viewBox="0 0 24.359 26.749"><defs><style>.a{fill:#fff;}</style></defs><g transform="translate(-5.32 -4.969)"><g transform="translate(5.32 4.969)"><path class="a" d="M22.174,26.749h-6.08A1.1,1.1,0,0,1,15,25.656V16.6H9.358v9.058a1.1,1.1,0,0,1-1.093,1.093H2.186A1.426,1.426,0,0,1,.769,25.536L.506,23.848A41.926,41.926,0,0,1,.692,9.772,3.255,3.255,0,0,1,1.646,8L8.394,1.523a5.468,5.468,0,0,1,7.572,0L22.713,8a3.255,3.255,0,0,1,.954,1.775,41.926,41.926,0,0,1,.186,14.077l-.264,1.688A1.426,1.426,0,0,1,22.174,26.749ZM8.265,14.41h7.829A1.1,1.1,0,0,1,17.187,15.5v9.059h4.34l.164-1.051a39.765,39.765,0,0,0-.176-13.345,1.1,1.1,0,0,0-.318-.591L14.451,3.1a3.28,3.28,0,0,0-4.543,0L3.161,9.575a1.1,1.1,0,0,0-.318.591,39.765,39.765,0,0,0-.176,13.345l.164,1.051h4.34V15.5A1.1,1.1,0,0,1,8.265,14.41Z" transform="translate(0 0)"/></g></g></svg>