<svg xmlns="http://www.w3.org/2000/svg" width="16.094" height="16.094" viewBox="0 0 16.094 16.094"><defs><style>.a{fill:#383838;fill-rule:evenodd;}</style></defs><path class="a" d="M8.047,1.431a24.673,24.673,0,0,1,3.219.089,4.147,4.147,0,0,1,1.52.268,3.14,3.14,0,0,1,1.52,1.52,4.147,4.147,0,0,1,.268,1.52c0,.8.089,1.073.089,3.219a24.673,24.673,0,0,1-.089,3.219,4.147,4.147,0,0,1-.268,1.52,3.14,3.14,0,0,1-1.52,1.52,4.147,4.147,0,0,1-1.52.268c-.8,0-1.073.089-3.219.089a24.673,24.673,0,0,1-3.219-.089,4.147,4.147,0,0,1-1.52-.268,3.14,3.14,0,0,1-1.52-1.52,4.147,4.147,0,0,1-.268-1.52c0-.8-.089-1.073-.089-3.219A24.673,24.673,0,0,1,1.52,4.828a4.147,4.147,0,0,1,.268-1.52,3.211,3.211,0,0,1,.626-.894,1.512,1.512,0,0,1,.894-.626,4.147,4.147,0,0,1,1.52-.268,24.673,24.673,0,0,1,3.219-.089M8.047,0A26.418,26.418,0,0,0,4.739.089,5.52,5.52,0,0,0,2.772.447a3.5,3.5,0,0,0-1.431.894A3.5,3.5,0,0,0,.447,2.772,4.074,4.074,0,0,0,.089,4.739,26.418,26.418,0,0,0,0,8.047a26.418,26.418,0,0,0,.089,3.308,5.52,5.52,0,0,0,.358,1.967,3.5,3.5,0,0,0,.894,1.431,3.5,3.5,0,0,0,1.431.894A5.52,5.52,0,0,0,4.739,16a26.418,26.418,0,0,0,3.308.089A26.418,26.418,0,0,0,11.355,16a5.52,5.52,0,0,0,1.967-.358,3.751,3.751,0,0,0,2.325-2.325A5.52,5.52,0,0,0,16,11.355c0-.894.089-1.162.089-3.308A26.418,26.418,0,0,0,16,4.739a5.52,5.52,0,0,0-.358-1.967,3.5,3.5,0,0,0-.894-1.431A3.5,3.5,0,0,0,13.322.447,5.52,5.52,0,0,0,11.355.089,26.418,26.418,0,0,0,8.047,0m0,3.934A4.047,4.047,0,0,0,3.934,8.047,4.113,4.113,0,1,0,8.047,3.934m0,6.8A2.634,2.634,0,0,1,5.365,8.047,2.634,2.634,0,0,1,8.047,5.365a2.634,2.634,0,0,1,2.682,2.682,2.634,2.634,0,0,1-2.682,2.682m4.292-7.957a.984.984,0,1,0,.984.984.992.992,0,0,0-.984-.984"/></svg>