<svg xmlns="http://www.w3.org/2000/svg" width="16.094" height="13.054" viewBox="0 0 16.094 13.054"><defs><style>.a{fill:#383838;fill-rule:evenodd;}</style></defs><path class="a" d="M43.1,15.054a9.3,9.3,0,0,0,9.388-9.388V5.219a7.268,7.268,0,0,0,1.609-1.7,7.422,7.422,0,0,1-1.878.536,3.479,3.479,0,0,0,1.431-1.788,8.2,8.2,0,0,1-2.056.8A3.193,3.193,0,0,0,49.176,2a3.359,3.359,0,0,0-3.308,3.308,1.743,1.743,0,0,0,.089.715,9.244,9.244,0,0,1-6.8-3.487,3.424,3.424,0,0,0-.447,1.7,3.552,3.552,0,0,0,1.431,2.772,3.014,3.014,0,0,1-1.52-.447h0a3.268,3.268,0,0,0,2.682,3.219,2.756,2.756,0,0,1-.894.089,1.522,1.522,0,0,1-.626-.089A3.387,3.387,0,0,0,42.918,12.1,6.751,6.751,0,0,1,38.8,13.534a2.475,2.475,0,0,1-.8-.089,8.439,8.439,0,0,0,5.1,1.609" transform="translate(-38 -2)"/></svg>