<svg xmlns="http://www.w3.org/2000/svg" xmlns:xlink="http://www.w3.org/1999/xlink" width="35" height="35" viewBox="0 0 34.753 34.753"><defs><style>.a{fill-rule:evenodd;fill:url(#a);}</style><linearGradient id="a" x1="-0.749" x2="1" y2="0.5" gradientUnits="objectBoundingBox"><stop offset="0" stop-color="#2b2f84"/><stop offset="1" stop-color="#e6267a"/></linearGradient></defs><path class="a" d="M17.377,3.089a53.28,53.28,0,0,1,6.951.193,8.955,8.955,0,0,1,3.282.579,6.781,6.781,0,0,1,3.282,3.282,8.955,8.955,0,0,1,.579,3.282c0,1.738.193,2.317.193,6.951a53.28,53.28,0,0,1-.193,6.951,8.955,8.955,0,0,1-.579,3.282,6.781,6.781,0,0,1-3.282,3.282,8.955,8.955,0,0,1-3.282.579c-1.738,0-2.317.193-6.951.193a53.28,53.28,0,0,1-6.951-.193,8.955,8.955,0,0,1-3.282-.579A6.781,6.781,0,0,1,3.861,27.61a8.955,8.955,0,0,1-.579-3.282c0-1.738-.193-2.317-.193-6.951a53.28,53.28,0,0,1,.193-6.951,8.955,8.955,0,0,1,.579-3.282A6.934,6.934,0,0,1,5.213,5.213,3.264,3.264,0,0,1,7.144,3.861a8.955,8.955,0,0,1,3.282-.579,53.28,53.28,0,0,1,6.951-.193m0-3.089a57.048,57.048,0,0,0-7.144.193A11.92,11.92,0,0,0,5.985.965,7.558,7.558,0,0,0,2.9,2.9,7.558,7.558,0,0,0,.965,5.985a8.8,8.8,0,0,0-.772,4.248A57.048,57.048,0,0,0,0,17.377,57.048,57.048,0,0,0,.193,24.52a11.92,11.92,0,0,0,.772,4.248A7.558,7.558,0,0,0,2.9,31.857a7.558,7.558,0,0,0,3.089,1.931,11.92,11.92,0,0,0,4.248.772,57.048,57.048,0,0,0,7.144.193,57.048,57.048,0,0,0,7.144-.193,11.92,11.92,0,0,0,4.248-.772,8.1,8.1,0,0,0,5.02-5.02,11.92,11.92,0,0,0,.772-4.248c0-1.931.193-2.51.193-7.144a57.048,57.048,0,0,0-.193-7.144,11.92,11.92,0,0,0-.772-4.248A7.558,7.558,0,0,0,31.857,2.9,7.558,7.558,0,0,0,28.768.965,11.92,11.92,0,0,0,24.52.193,57.048,57.048,0,0,0,17.377,0m0,8.5A8.738,8.738,0,0,0,8.5,17.377,8.881,8.881,0,1,0,17.377,8.5m0,14.674a5.689,5.689,0,0,1-5.792-5.792,5.689,5.689,0,0,1,5.792-5.792,5.689,5.689,0,0,1,5.792,5.792,5.689,5.689,0,0,1-5.792,5.792M26.644,5.985a2.124,2.124,0,1,0,2.124,2.124,2.143,2.143,0,0,0-2.124-2.124"/></svg>