<svg xmlns="http://www.w3.org/2000/svg" xmlns:xlink="http://www.w3.org/1999/xlink" width="25" height="25" viewBox="0 0 25 25">
  <defs>
    <linearGradient id="linear-gradient" x1="0.5" y1="-0.811" x2="0.5" y2="1" gradientUnits="objectBoundingBox">
      <stop offset="0" stop-color="#2b2f84"/>
      <stop offset="1" stop-color="#e6267a"/>
    </linearGradient>
    <linearGradient id="linear-gradient-2" x1="0.5" y1="-0.572" xlink:href="#linear-gradient"/>
    <clipPath id="clip-wlinkdin">
      <rect width="25" height="25"/>
    </clipPath>
  </defs>
  <g id="wlinkdin" clip-path="url(#clip-wlinkdin)">
    <g id="linkedin_3_" data-name="linkedin (3)">
      <path id="Path_1" data-name="Path 1" d="M24.64,24.684h.006V15.515c0-4.485-.966-7.941-6.209-7.941a5.444,5.444,0,0,0-4.9,2.695h-.073V7.993H8.489V24.683h5.177V16.419c0-2.176.412-4.28,3.107-4.28,2.655,0,2.695,2.483,2.695,4.42v8.126Z" transform="translate(0.354 0.316)" fill="url(#linear-gradient)"/>
      <path id="Path_2" data-name="Path 2" d="M.4,7.977H5.579V24.668H.4Z" transform="translate(0.016 0.332)" fill="url(#linear-gradient-2)"/>
      <path id="Path_3" data-name="Path 3" d="M3,0A3.016,3.016,0,1,0,6,3,3,3,0,0,0,3,0Z" fill="url(#linear-gradient-2)"/>
    </g>
  </g>
</svg>
