<svg xmlns="http://www.w3.org/2000/svg" xmlns:xlink="http://www.w3.org/1999/xlink" width="35" height="35" viewBox="0 0 34.753 28.189"><defs><style>.a{fill-rule:evenodd;fill:url(#a);}</style><linearGradient id="a" x1="-0.749" x2="1" y2="0.5" gradientUnits="objectBoundingBox"><stop offset="0" stop-color="#2b2f84"/><stop offset="1" stop-color="#e6267a"/></linearGradient></defs><path class="a" d="M49.005,30.189c13.129,0,20.273-10.812,20.273-20.273V8.951a15.694,15.694,0,0,0,3.475-3.668A16.028,16.028,0,0,1,68.7,6.441a7.512,7.512,0,0,0,3.089-3.861,17.709,17.709,0,0,1-4.441,1.738A6.9,6.9,0,0,0,62.134,2,7.254,7.254,0,0,0,54.99,9.144a3.764,3.764,0,0,0,.193,1.545A19.962,19.962,0,0,1,40.51,3.158a7.394,7.394,0,0,0-.965,3.668,7.671,7.671,0,0,0,3.089,5.985,6.509,6.509,0,0,1-3.282-.965h0A7.056,7.056,0,0,0,45.144,18.8a5.952,5.952,0,0,1-1.931.193,3.286,3.286,0,0,1-1.352-.193,7.314,7.314,0,0,0,6.758,5.02,14.577,14.577,0,0,1-8.881,3.089A5.345,5.345,0,0,1,38,26.713a18.224,18.224,0,0,0,11.005,3.475" transform="translate(-38 -2)"/></svg>